M48
;Layer_Color=9474304
;FILE_FORMAT=2:3
INCH,LZ
;TYPE=PLATED
T1F00S00C0.012
T2F00S00C0.016
T3F00S00C0.024
T4F00S00C0.035
T5F00S00C0.039
T6F00S00C0.047
T7F00S00C0.051
T8F00S00C0.059
T9F00S00C0.079
T10F00S00C0.118
%
T01
X01053Y0244
X01204Y02473
X01309Y0255
X01316Y02615
X01347Y02584
X01528Y02516
X01519Y02456
X02084Y02601
X02Y0298
X01553Y02656
X01348Y02646
X01018Y02724
T02
X01017Y02503
X01029Y02565
X00976Y02598
X01992Y02706
X01031Y02629
X00946Y02691
T03
X01901Y01971
X01915Y02244
X01849Y02906
X01848Y02971
T04
X01419Y00478
X01518
X01608Y00923
Y01023
X01433Y01022
X02127Y00478
X02225
X0081
X00711
X01333Y01022
X01332Y01513
X00862Y02112
X00762
X00662
X01432Y01513
X01612
Y01613
Y01413
X01608Y01123
X02085Y01595
X02185
X02251Y03224
Y03324
X01652Y03348
X01553
X01001
X00902
X00343
X00245
T05
X00956Y0231
X01153
X0135
X01531Y02402
Y02591
Y0278
X0135Y02871
X01153
X00968
T06
X00267Y0231
X00661
X00858Y02435
X01055Y0231
X00071Y02534
X01449Y0231
X01252Y02871
X00858
Y02648
X00464Y02871
X00071
T07
X01032Y01179
X01232
X01332
Y01379
X01232
X01032
X01026Y01719
X01226
X01326
Y01919
X01226
X01026
X01426
Y01719
X01432Y01379
Y01179
T08
X00283Y00527
Y00676
Y00826
Y00975
Y01125
Y01275
T09
X0162Y00277
X01926
X02328
X01218
X00912
X0051
X00467Y01754
Y0192
Y02086
X00254
Y0192
Y01754
X01451Y03549
X01853
X01202
X008
X00544
X00142
T10
X01893Y00724
X01342
X00791
Y01905
Y03086
X0024
X01342
M30
