G04*
G04 #@! TF.GenerationSoftware,Altium Limited,Altium Designer,19.1.6 (110)*
G04*
G04 Layer_Color=32896*
%FSLAX23Y23*%
%MOIN*%
G70*
G01*
G75*
%ADD14C,0.006*%
D14*
X821Y2414D02*
Y2453D01*
X801D01*
X794Y2447D01*
Y2434D01*
X801Y2427D01*
X821D01*
X807D02*
X794Y2414D01*
X755Y2453D02*
X781D01*
Y2434D01*
X768Y2440D01*
X762D01*
X755Y2434D01*
Y2421D01*
X762Y2414D01*
X775D01*
X781Y2421D01*
X817Y2488D02*
Y2527D01*
X797D01*
X791Y2521D01*
Y2508D01*
X797Y2501D01*
X817D01*
X804D02*
X791Y2488D01*
X758D02*
Y2527D01*
X778Y2508D01*
X751D01*
X820Y2561D02*
Y2600D01*
X800D01*
X793Y2594D01*
Y2581D01*
X800Y2574D01*
X820D01*
X806D02*
X793Y2561D01*
X780Y2594D02*
X774Y2600D01*
X761D01*
X754Y2594D01*
Y2587D01*
X761Y2581D01*
X767D01*
X761D01*
X754Y2574D01*
Y2568D01*
X761Y2561D01*
X774D01*
X780Y2568D01*
X821Y2636D02*
Y2675D01*
X801D01*
X795Y2669D01*
Y2656D01*
X801Y2649D01*
X821D01*
X808D02*
X795Y2636D01*
X755D02*
X782D01*
X755Y2662D01*
Y2669D01*
X762Y2675D01*
X775D01*
X782Y2669D01*
X810Y2703D02*
Y2742D01*
X790D01*
X783Y2736D01*
Y2723D01*
X790Y2716D01*
X810D01*
X796D02*
X783Y2703D01*
X770D02*
X757D01*
X764D01*
Y2742D01*
X770Y2736D01*
M02*
