G04*
G04 #@! TF.GenerationSoftware,Altium Limited,Altium Designer,19.1.6 (110)*
G04*
G04 Layer_Physical_Order=1*
G04 Layer_Color=255*
%FSLAX23Y23*%
%MOIN*%
G70*
G01*
G75*
%ADD27C,0.071*%
%ADD28C,0.055*%
%ADD32R,0.130X0.098*%
%ADD33R,0.049X0.039*%
%ADD34R,0.039X0.049*%
%ADD35R,0.098X0.020*%
%ADD36C,0.039*%
%ADD37C,0.020*%
%ADD38C,0.016*%
%ADD39C,0.031*%
%ADD40C,0.024*%
%ADD41C,0.059*%
%ADD42R,0.059X0.059*%
%ADD43R,0.059X0.059*%
%ADD44C,0.130*%
%ADD45C,0.138*%
%ADD46C,0.024*%
%ADD47C,0.063*%
%ADD48C,0.039*%
%ADD49C,0.079*%
%ADD50C,0.118*%
%ADD51C,0.031*%
D27*
X283Y527D02*
D03*
Y676D02*
D03*
Y826D02*
D03*
Y975D02*
D03*
Y1125D02*
D03*
Y1275D02*
D03*
D28*
X968Y2871D02*
D03*
X956Y2310D02*
D03*
X1531Y2780D02*
D03*
Y2591D02*
D03*
Y2402D02*
D03*
X1153Y2871D02*
D03*
X1350D02*
D03*
Y2310D02*
D03*
X1153D02*
D03*
D32*
X1908Y1842D02*
D03*
X2156D02*
D03*
X1914Y2161D02*
D03*
X2162D02*
D03*
X2100Y2797D02*
D03*
X1852D02*
D03*
X2102Y3083D02*
D03*
X1854D02*
D03*
D33*
X763Y2212D02*
D03*
X850D02*
D03*
X2152Y2981D02*
D03*
X2065D02*
D03*
X2066Y2906D02*
D03*
X2153D02*
D03*
X2195Y1721D02*
D03*
X2108D02*
D03*
X2111Y1969D02*
D03*
X2024D02*
D03*
X2201Y2042D02*
D03*
X2114D02*
D03*
D34*
X2147Y3229D02*
D03*
Y3316D02*
D03*
X1944Y2649D02*
D03*
Y2562D02*
D03*
X2005Y2475D02*
D03*
Y2562D02*
D03*
D35*
X1126Y2725D02*
D03*
Y2693D02*
D03*
Y2630D02*
D03*
Y2662D02*
D03*
Y2536D02*
D03*
Y2504D02*
D03*
Y2567D02*
D03*
Y2599D02*
D03*
Y2441D02*
D03*
Y2473D02*
D03*
X1441Y2489D02*
D03*
Y2457D02*
D03*
Y2615D02*
D03*
Y2583D02*
D03*
Y2520D02*
D03*
Y2552D02*
D03*
Y2678D02*
D03*
Y2646D02*
D03*
Y2709D02*
D03*
Y2741D02*
D03*
D36*
X2147Y3227D02*
X2249D01*
X762Y2128D02*
Y2212D01*
X763D01*
X2249Y3227D02*
X2251Y3224D01*
X2147Y3227D02*
Y3229D01*
X2152Y2906D02*
Y2981D01*
X2147D02*
Y3053D01*
X2117Y3311D02*
X2147D01*
X2075Y3269D02*
X2117Y3311D01*
X2075Y3094D02*
Y3269D01*
X2147Y3311D02*
Y3316D01*
X2243D02*
X2251Y3324D01*
X2147Y3316D02*
X2243D01*
X2075Y3094D02*
X2086Y3083D01*
X1433Y1513D02*
X1745D01*
X1834Y893D02*
Y1425D01*
X1419Y478D02*
X1834Y893D01*
X1745Y1513D02*
X1834Y1425D01*
X856Y1100D02*
Y1203D01*
X283Y527D02*
X856Y1100D01*
X2102Y3083D02*
X2118D01*
X2147Y3053D01*
Y2981D02*
X2152D01*
X2086Y3083D02*
X2102D01*
X2152Y2981D02*
X2152D01*
Y2906D02*
X2153D01*
X2066Y2846D02*
Y2906D01*
X1944Y2653D02*
X2064D01*
X1232Y949D02*
X1258Y923D01*
X1232Y949D02*
Y1179D01*
X1258Y923D02*
X1608D01*
X1431Y1367D02*
X1432D01*
X2190Y1600D02*
Y1721D01*
X1207Y1534D02*
X1282Y1609D01*
X1077Y1534D02*
X1207D01*
X1077D02*
X1232Y1379D01*
X856Y1203D02*
X1032Y1379D01*
X134Y1685D02*
X285Y1534D01*
X134Y1685D02*
Y1800D01*
X285Y1534D02*
X1077D01*
X209Y1446D02*
X1069D01*
X70Y1585D02*
X209Y1446D01*
X1228Y1287D02*
X1351D01*
X1432Y1379D02*
X1573D01*
X1351Y1287D02*
X1431Y1367D01*
X1069Y1446D02*
X1228Y1287D01*
X70Y1585D02*
Y1903D01*
X1432Y1367D02*
Y1379D01*
X254Y1734D02*
X321Y1667D01*
X254Y1734D02*
Y1754D01*
X321Y1667D02*
X755D01*
X1007Y1919D01*
X2123Y2712D02*
Y2787D01*
X2064Y2653D02*
X2123Y2712D01*
X1944Y2649D02*
Y2653D01*
X70Y1903D02*
X254Y2086D01*
X134Y1800D02*
X254Y1920D01*
X1007Y1919D02*
X1026D01*
X2112Y1969D02*
Y2042D01*
X2085Y1698D02*
X2108Y1721D01*
X2085Y1595D02*
Y1698D01*
X2141Y1842D02*
X2156D01*
X2111Y1872D02*
X2141Y1842D01*
X2111Y1872D02*
Y1969D01*
X2112D01*
Y2042D02*
X2114D01*
X2201D02*
Y2131D01*
X2171Y2161D02*
X2201Y2131D01*
X2162Y2161D02*
X2171D01*
X2123Y2787D02*
X2124Y2788D01*
X2185Y1595D02*
X2190Y1600D01*
Y1721D02*
X2195D01*
X2156Y1842D02*
X2165D01*
X2195Y1812D01*
Y1721D02*
Y1812D01*
X762Y2128D02*
X763Y2129D01*
X1282Y1609D02*
X1608D01*
X1612Y1613D01*
X1603Y1123D02*
X1608D01*
X1547Y1179D02*
X1603Y1123D01*
X1432Y1179D02*
X1547D01*
X1607Y1413D02*
X1612D01*
X1573Y1379D02*
X1607Y1413D01*
X1432Y1513D02*
X1433Y1513D01*
X1607Y1023D02*
X1608Y1023D01*
X1434Y1023D02*
X1607D01*
X1433Y1022D02*
X1434Y1023D01*
X1332D02*
X1333Y1022D01*
X1332Y1023D02*
Y1179D01*
X1332Y1179D02*
X1332Y1179D01*
X1332Y1379D02*
Y1513D01*
D37*
X259Y1972D02*
X297Y1934D01*
D38*
X985Y2660D02*
X1132D01*
X780Y2455D02*
X985Y2660D01*
X780Y2282D02*
Y2455D01*
Y2282D02*
X850Y2213D01*
X1989Y2709D02*
X1992Y2706D01*
X1441Y2709D02*
X1441Y2709D01*
X1989D01*
X1553Y2655D02*
X1938D01*
X1242Y1938D02*
X1258Y1922D01*
X1017Y2503D02*
X1132D01*
X1938Y2655D02*
X1944Y2649D01*
X1018Y2724D02*
X1132D01*
X1053Y2440D02*
X1132D01*
X1156Y1789D02*
X1220Y1725D01*
X947Y2692D02*
X1132D01*
X1031Y2629D02*
X1132D01*
X976Y2598D02*
X1132D01*
X1029Y2565D02*
X1131D01*
X1132Y2566D01*
X1379Y2520D02*
X1441D01*
X1208Y2349D02*
X1379Y2520D01*
X1156Y2079D02*
X1208Y2131D01*
X1156Y1789D02*
Y2079D01*
X1208Y2131D02*
Y2349D01*
X1381Y2489D02*
X1441D01*
X1242Y2350D02*
X1381Y2489D01*
X1440Y2551D02*
X1441Y2552D01*
X1310Y2551D02*
X1440D01*
X1309Y2550D02*
X1310Y2551D01*
X1992Y2706D02*
X1992Y2706D01*
X1316Y2615D02*
X1316Y2615D01*
X1441D01*
X1531Y2767D02*
Y2780D01*
X1505Y2741D02*
X1531Y2767D01*
X1441Y2741D02*
X1505D01*
X1348Y2646D02*
X1348Y2646D01*
X1441D01*
X1440Y2584D02*
X1441Y2583D01*
X1347Y2584D02*
X1440D01*
X1347Y2584D02*
X1347Y2584D01*
X1126Y2473D02*
X1204D01*
X1441Y2615D02*
X1443Y2617D01*
X1276Y2627D02*
X1327Y2678D01*
X1441D01*
Y2646D02*
X1441Y2646D01*
X1242Y1938D02*
Y2350D01*
X1276Y2494D02*
Y2627D01*
X1110Y1734D02*
Y2328D01*
Y1734D02*
X1196Y1648D01*
X1110Y2328D02*
X1276Y2494D01*
X1450Y2459D02*
X1474D01*
X1471Y2456D02*
X1474Y2459D01*
X1471Y2456D02*
X1519D01*
X2000Y2980D02*
X2065D01*
X1132Y2724D02*
X1132Y2723D01*
X1018Y2724D02*
X1018Y2724D01*
X1132Y2440D02*
X1132Y2440D01*
X1053Y2440D02*
X1053Y2440D01*
X976Y2598D02*
X976Y2598D01*
X946Y2691D02*
X947Y2692D01*
X946Y2691D02*
X946Y2691D01*
X1015Y2505D02*
X1017Y2503D01*
X1196Y1648D02*
X1255D01*
X1326Y1719D01*
D39*
X1220Y1725D02*
X1232D01*
X1635Y1801D02*
X2135Y1301D01*
Y486D02*
Y1301D01*
X2127Y478D02*
X2135Y486D01*
X1849Y2800D02*
X1852Y2797D01*
X1849Y2800D02*
Y2906D01*
X1564Y2565D02*
X1941D01*
X1944Y2562D01*
X1531Y2591D02*
X1538D01*
X1564Y2565D01*
X2005Y2567D02*
X2009Y2571D01*
X2005Y2562D02*
Y2567D01*
X1944Y2562D02*
X2005D01*
X1913Y2162D02*
X1915Y2244D01*
X1308Y1801D02*
X1635D01*
X1232Y1725D02*
X1308Y1801D01*
X1913Y2162D02*
X1914Y2161D01*
X1901Y1849D02*
Y1971D01*
Y1849D02*
X1908Y1842D01*
X1901Y1971D02*
X1902Y1970D01*
X2023D01*
X2024Y1969D01*
X1848Y2971D02*
Y3077D01*
X1854Y3083D01*
D40*
X1566Y2478D02*
X2005D01*
X2162Y2161D02*
Y2313D01*
X2005Y2470D02*
X2162Y2313D01*
X2005Y2470D02*
Y2475D01*
X1528Y2516D02*
X1566Y2478D01*
X2054Y2571D02*
X2084Y2601D01*
X2009Y2571D02*
X2054D01*
D41*
X662Y2112D02*
D03*
X762D02*
D03*
X245Y3348D02*
D03*
X902D02*
D03*
X2225Y478D02*
D03*
X810D02*
D03*
X1553Y3348D02*
D03*
X1518Y478D02*
D03*
X2085Y1595D02*
D03*
X2251Y3224D02*
D03*
X1332Y1513D02*
D03*
X1433Y1022D02*
D03*
X1612Y1513D02*
D03*
Y1413D02*
D03*
X1608Y1023D02*
D03*
Y1123D02*
D03*
D42*
X862Y2112D02*
D03*
X2185Y1595D02*
D03*
X1432Y1513D02*
D03*
X1333Y1022D02*
D03*
D43*
X343Y3348D02*
D03*
X1001D02*
D03*
X2127Y478D02*
D03*
X711D02*
D03*
X1652Y3348D02*
D03*
X1419Y478D02*
D03*
X2251Y3324D02*
D03*
X1612Y1613D02*
D03*
X1608Y923D02*
D03*
D44*
X142Y3549D02*
D03*
X544D02*
D03*
X800D02*
D03*
X1202D02*
D03*
X2328Y277D02*
D03*
X1926D02*
D03*
X912D02*
D03*
X510D02*
D03*
X1451Y3549D02*
D03*
X1853D02*
D03*
X1620Y277D02*
D03*
X1218D02*
D03*
D45*
X1893Y724D02*
D03*
X1342D02*
D03*
X791D02*
D03*
Y1905D02*
D03*
Y3086D02*
D03*
X240D02*
D03*
X1342D02*
D03*
D46*
X1553Y2656D02*
D03*
X1528Y2516D02*
D03*
X2084Y2601D02*
D03*
X1316Y2615D02*
D03*
X1348Y2646D02*
D03*
X1347Y2584D02*
D03*
X2000Y2980D02*
D03*
X1309Y2550D02*
D03*
X1519Y2456D02*
D03*
X1053Y2440D02*
D03*
X1204Y2473D02*
D03*
X1018Y2724D02*
D03*
D47*
X858Y2871D02*
D03*
X1055Y2310D02*
D03*
X1449D02*
D03*
X1252Y2871D02*
D03*
X858Y2648D02*
D03*
Y2435D02*
D03*
X661Y2310D02*
D03*
X267D02*
D03*
X464Y2871D02*
D03*
X71D02*
D03*
X71Y2534D02*
D03*
D48*
X1901Y1971D02*
D03*
X1915Y2244D02*
D03*
X1848Y2971D02*
D03*
X1849Y2906D02*
D03*
D49*
X1432Y1179D02*
D03*
X1332D02*
D03*
X1232D02*
D03*
X1032D02*
D03*
X1432Y1379D02*
D03*
X1332D02*
D03*
X1232D02*
D03*
X1032D02*
D03*
X1426Y1719D02*
D03*
X1326D02*
D03*
X1226D02*
D03*
X1026D02*
D03*
X1426Y1919D02*
D03*
X1326D02*
D03*
X1226D02*
D03*
X1026D02*
D03*
D50*
X467Y1920D02*
D03*
X254D02*
D03*
X467Y1754D02*
D03*
X254Y2086D02*
D03*
X467D02*
D03*
X254Y1754D02*
D03*
D51*
X1992Y2706D02*
D03*
X976Y2598D02*
D03*
X1029Y2565D02*
D03*
X946Y2691D02*
D03*
X1031Y2629D02*
D03*
X1017Y2503D02*
D03*
M02*
